<?xml version="1.0" encoding="UTF-8"?>
<svg width="76px" height="75px" viewBox="0 0 76 75" version="1.1" xmlns="http://www.w3.org/2000/svg" xmlns:xlink="http://www.w3.org/1999/xlink">
    <title>تطبيق الصور</title>
    <g id="High-fid" stroke="none" stroke-width="1" fill="none" fill-rule="evenodd">
        <g id="الجوال-للايباد" transform="translate(-1059, -444)">
            <g id="Group-7" transform="translate(200, 36)">
                <g id="تطبيق-الصور" transform="translate(859.5233, 408.0233)">
                    <rect id="Rectangle" fill="#FFFFFF" x="0.476659403" y="1.9766594" width="74" height="73" rx="12"></rect>
                    <g id="Group-6" transform="translate(10.9767, 10.9767)" fill-opacity="0.7">
                        <rect id="Rectangle" fill="#FF8787" x="20.5" y="0" width="12" height="23" rx="6"></rect>
                        <rect id="Rectangle" fill="#92D6EF" x="20.5" y="30" width="12" height="23" rx="6"></rect>
                        <rect id="Rectangle" fill="#FF7373" transform="translate(11.5, 26.5) rotate(90) translate(-11.5, -26.5)" x="5.5" y="15" width="12" height="23" rx="6"></rect>
                        <rect id="Rectangle" fill="#BCFF8E" transform="translate(41.5, 26.5) rotate(90) translate(-41.5, -26.5)" x="35.5" y="15" width="12" height="23" rx="6"></rect>
                    </g>
                    <g id="Group-6" transform="translate(37.4767, 37.4767) rotate(45) translate(-37.4767, -37.4767)translate(10.9767, 10.9767)" fill-opacity="0.7">
                        <rect id="Rectangle" fill="#FFC87A" x="20.5" y="0" width="12" height="23" rx="6"></rect>
                        <rect id="Rectangle" fill="#E48FF7" x="20.5" y="30" width="12" height="23" rx="6"></rect>
                        <rect id="Rectangle" fill="#FCEC7A" transform="translate(11.5, 26.5) rotate(90) translate(-11.5, -26.5)" x="5.5" y="15" width="12" height="23" rx="6"></rect>
                        <rect id="Rectangle" fill="#91AAFF" transform="translate(41.5, 26.5) rotate(90) translate(-41.5, -26.5)" x="35.5" y="15" width="12" height="23" rx="6"></rect>
                    </g>
                </g>
            </g>
        </g>
    </g>
</svg>