<?xml version="1.0" encoding="UTF-8"?>
<svg width="74px" height="73px" viewBox="0 0 74 73" version="1.1" xmlns="http://www.w3.org/2000/svg" xmlns:xlink="http://www.w3.org/1999/xlink">
    <title>تطبيق الملاحظات</title>
    <g id="High-fid" stroke="none" stroke-width="1" fill="none" fill-rule="evenodd">
        <g id="الجوال-للايباد" transform="translate(-948, -271)">
            <g id="Group-7" transform="translate(200, 36)">
                <g id="تطبيق-الملاحظات" transform="translate(748, 235)">
                    <rect id="Rectangle" fill="#3E60C5" x="0" y="0" width="74" height="73" rx="12"></rect>
                    <rect id="Rectangle" fill="#EEEEEE" x="0" y="18" width="74" height="55" rx="12"></rect>
                    <g id="Group-3" transform="translate(2.5, 31)" stroke="#979797" stroke-linecap="square">
                        <g id="Group-2" transform="translate(0, 0.5)">
                            <line x1="9" y1="-1.19168564e-13" x2="9" y2="31" id="Line-12"></line>
                            <line x1="1" y1="-1.19168564e-13" x2="1" y2="31" id="Line-12"></line>
                        </g>
                        <line x1="66" y1="0.5" x2="66" y2="31.5" id="Line-12"></line>
                        <g id="Group-2" transform="translate(49, 0.5)">
                            <line x1="9" y1="-1.19168564e-13" x2="9" y2="31" id="Line-12"></line>
                            <line x1="1" y1="-1.19168564e-13" x2="1" y2="31" id="Line-12"></line>
                        </g>
                        <g id="Group-2" transform="translate(33, 0.5)">
                            <line x1="9" y1="-1.19168564e-13" x2="9" y2="31" id="Line-12"></line>
                            <line x1="1" y1="-1.19168564e-13" x2="1" y2="31" id="Line-12"></line>
                        </g>
                        <g id="Group-2" transform="translate(16, 0.5)">
                            <line x1="9" y1="-1.19168564e-13" x2="9" y2="31" id="Line-12"></line>
                            <line x1="1" y1="-1.19168564e-13" x2="1" y2="31" id="Line-12"></line>
                        </g>
                    </g>
                    <g id="Group-4" transform="translate(8, 12)" fill="#000000">
                        <g id="Group" transform="translate(48, 0)">
                            <rect id="Rectangle" x="8" y="0" width="2" height="14" rx="1"></rect>
                            <rect id="Rectangle" x="0" y="0" width="2" height="14" rx="1"></rect>
                        </g>
                        <g id="Group">
                            <rect id="Rectangle" x="8" y="0" width="2" height="14" rx="1"></rect>
                            <rect id="Rectangle" x="0" y="0" width="2" height="14" rx="1"></rect>
                        </g>
                        <g id="Group" transform="translate(32, 0)">
                            <rect id="Rectangle" x="8" y="0" width="2" height="14" rx="1"></rect>
                            <rect id="Rectangle" x="0" y="0" width="2" height="14" rx="1"></rect>
                        </g>
                        <g id="Group" transform="translate(16, 0)">
                            <rect id="Rectangle" x="8" y="0" width="2" height="14" rx="1"></rect>
                            <rect id="Rectangle" x="0" y="0" width="2" height="14" rx="1"></rect>
                        </g>
                    </g>
                </g>
            </g>
        </g>
    </g>
</svg>